<?xml version="1.0" standalone="no"?><svg xmlns:xlink="http://www.w3.org/1999/xlink" xmlns="http://www.w3.org/2000/svg" viewBox="0 0 1000 555.5395382270002" preserveAspectRatio="xMaxYMax slice"><g transform="scale(1.9747391369600076)"><rect x="0" y="0" width="506.39939999999996" height="281.33299999999997" fill="#ffffff"/><g transform="translate(78.77,22.51) scale(0.5625) rotate(0)"><rect width="2" height="20" fill="#3eb7e7"/><rect x="4" width="2" height="20" fill="#3eb7e7"/><rect x="8" width="2" height="20" fill="#3eb7e7"/><rect x="12" width="2" height="20" fill="#3eb7e7"/><rect x="16" width="2" height="20" fill="#3eb7e7"/></g><g transform="translate(191.31,22.51) scale(0.5625) rotate(0)"><rect width="2" height="20" fill="#ffffff"/><rect x="4" width="2" height="20" fill="#ffffff"/><rect x="8" width="2" height="20" fill="#ffffff"/><rect x="12" width="2" height="20" fill="#ffffff"/><rect x="16" width="2" height="20" fill="#ffffff"/></g><g transform="translate(22.51,78.77) scale(0.5625) rotate(0)"><rect width="2" height="20" fill="#5bc2ea"/><rect x="4" width="2" height="20" fill="#5bc2ea"/><rect x="8" width="2" height="20" fill="#5bc2ea"/><rect x="12" width="2" height="20" fill="#5bc2ea"/><rect x="16" width="2" height="20" fill="#5bc2ea"/></g><g transform="translate(78.77,78.77) scale(0.5625) rotate(0)"><rect width="2" height="20" fill="#ffffff"/><rect x="4" width="2" height="20" fill="#ffffff"/><rect x="8" width="2" height="20" fill="#ffffff"/><rect x="12" width="2" height="20" fill="#ffffff"/><rect x="16" width="2" height="20" fill="#ffffff"/></g><g transform="translate(191.31,78.77) scale(0.5625) rotate(0)"><rect width="2" height="20" fill="#ffffff"/><rect x="4" width="2" height="20" fill="#ffffff"/><rect x="8" width="2" height="20" fill="#ffffff"/><rect x="12" width="2" height="20" fill="#ffffff"/><rect x="16" width="2" height="20" fill="#ffffff"/></g><g transform="translate(360.11,78.77) scale(0.5625) rotate(0)"><rect width="2" height="20" fill="#ffffff"/><rect x="4" width="2" height="20" fill="#ffffff"/><rect x="8" width="2" height="20" fill="#ffffff"/><rect x="12" width="2" height="20" fill="#ffffff"/><rect x="16" width="2" height="20" fill="#ffffff"/></g><g transform="translate(22.51,135.04) scale(0.5625) rotate(0)"><rect width="2" height="20" fill="#ffffff"/><rect x="4" width="2" height="20" fill="#ffffff"/><rect x="8" width="2" height="20" fill="#ffffff"/><rect x="12" width="2" height="20" fill="#ffffff"/><rect x="16" width="2" height="20" fill="#ffffff"/></g><g transform="translate(78.77,135.04) scale(0.5625) rotate(0)"><rect width="2" height="20" fill="#ffffff"/><rect x="4" width="2" height="20" fill="#ffffff"/><rect x="8" width="2" height="20" fill="#ffffff"/><rect x="12" width="2" height="20" fill="#ffffff"/><rect x="16" width="2" height="20" fill="#ffffff"/></g><g transform="translate(191.31,135.04) scale(0.5625) rotate(0)"><rect width="2" height="20" fill="#daf1fa"/><rect x="4" width="2" height="20" fill="#daf1fa"/><rect x="8" width="2" height="20" fill="#daf1fa"/><rect x="12" width="2" height="20" fill="#daf1fa"/><rect x="16" width="2" height="20" fill="#daf1fa"/></g><g transform="translate(247.57,135.04) scale(0.5625) rotate(0)"><rect width="2" height="20" fill="#ffffff"/><rect x="4" width="2" height="20" fill="#ffffff"/><rect x="8" width="2" height="20" fill="#ffffff"/><rect x="12" width="2" height="20" fill="#ffffff"/><rect x="16" width="2" height="20" fill="#ffffff"/></g><g transform="translate(303.84,135.04) scale(0.5625) rotate(0)"><rect width="2" height="20" fill="#ffffff"/><rect x="4" width="2" height="20" fill="#ffffff"/><rect x="8" width="2" height="20" fill="#ffffff"/><rect x="12" width="2" height="20" fill="#ffffff"/><rect x="16" width="2" height="20" fill="#ffffff"/></g><g transform="translate(416.37,135.04) scale(0.5625) rotate(0)"><rect width="2" height="20" fill="#58c1ea"/><rect x="4" width="2" height="20" fill="#58c1ea"/><rect x="8" width="2" height="20" fill="#58c1ea"/><rect x="12" width="2" height="20" fill="#58c1ea"/><rect x="16" width="2" height="20" fill="#58c1ea"/></g><g transform="translate(472.64,135.04) scale(0.5625) rotate(0)"><rect width="2" height="20" fill="#ffffff"/><rect x="4" width="2" height="20" fill="#ffffff"/><rect x="8" width="2" height="20" fill="#ffffff"/><rect x="12" width="2" height="20" fill="#ffffff"/><rect x="16" width="2" height="20" fill="#ffffff"/></g><g transform="translate(135.04,191.31) scale(0.5625) rotate(0)"><rect width="2" height="20" fill="#e0f3fb"/><rect x="4" width="2" height="20" fill="#e0f3fb"/><rect x="8" width="2" height="20" fill="#e0f3fb"/><rect x="12" width="2" height="20" fill="#e0f3fb"/><rect x="16" width="2" height="20" fill="#e0f3fb"/></g><g transform="translate(191.31,191.31) scale(0.5625) rotate(0)"><rect width="2" height="20" fill="#ffffff"/><rect x="4" width="2" height="20" fill="#ffffff"/><rect x="8" width="2" height="20" fill="#ffffff"/><rect x="12" width="2" height="20" fill="#ffffff"/><rect x="16" width="2" height="20" fill="#ffffff"/></g><g transform="translate(247.57,191.31) scale(0.5625) rotate(0)"><rect width="2" height="20" fill="#a8dff4"/><rect x="4" width="2" height="20" fill="#a8dff4"/><rect x="8" width="2" height="20" fill="#a8dff4"/><rect x="12" width="2" height="20" fill="#a8dff4"/><rect x="16" width="2" height="20" fill="#a8dff4"/></g><g transform="translate(303.84,191.31) scale(0.5625) rotate(0)"><rect width="2" height="20" fill="#ffffff"/><rect x="4" width="2" height="20" fill="#ffffff"/><rect x="8" width="2" height="20" fill="#ffffff"/><rect x="12" width="2" height="20" fill="#ffffff"/><rect x="16" width="2" height="20" fill="#ffffff"/></g><g transform="translate(472.64,191.31) scale(0.5625) rotate(0)"><rect width="2" height="20" fill="#a2dcf3"/><rect x="4" width="2" height="20" fill="#a2dcf3"/><rect x="8" width="2" height="20" fill="#a2dcf3"/><rect x="12" width="2" height="20" fill="#a2dcf3"/><rect x="16" width="2" height="20" fill="#a2dcf3"/></g><g transform="translate(22.51,247.57) scale(0.5625) rotate(0)"><rect width="2" height="20" fill="#6dc9ed"/><rect x="4" width="2" height="20" fill="#6dc9ed"/><rect x="8" width="2" height="20" fill="#6dc9ed"/><rect x="12" width="2" height="20" fill="#6dc9ed"/><rect x="16" width="2" height="20" fill="#6dc9ed"/></g><g transform="translate(303.84,247.57) scale(0.5625) rotate(0)"><rect width="2" height="20" fill="#ffffff"/><rect x="4" width="2" height="20" fill="#ffffff"/><rect x="8" width="2" height="20" fill="#ffffff"/><rect x="12" width="2" height="20" fill="#ffffff"/><rect x="16" width="2" height="20" fill="#ffffff"/></g><g transform="translate(360.11,247.57) scale(0.5625) rotate(0)"><rect width="2" height="20" fill="#ffffff"/><rect x="4" width="2" height="20" fill="#ffffff"/><rect x="8" width="2" height="20" fill="#ffffff"/><rect x="12" width="2" height="20" fill="#ffffff"/><rect x="16" width="2" height="20" fill="#ffffff"/></g></g></svg>